<?xml version="1.0" standalone="no"?>
<!DOCTYPE svg PUBLIC "-//W3C//DTD SVG 20010904//EN"
 "http://www.w3.org/TR/2001/REC-SVG-20010904/DTD/svg10.dtd">
<svg version="1.0" xmlns="http://www.w3.org/2000/svg"
 width="3300.000000pt" height="2400.000000pt" viewBox="0 0 3300.000000 2400.000000"
 preserveAspectRatio="xMidYMid meet">

<g transform="translate(0.000000,2400.000000) scale(0.100000,-0.100000)"
fill="#000000" stroke="none">
<path d="M15980 22719 c-2968 -90 -5828 -904 -8135 -2314 -370 -226 -737 -473
-793 -534 -18 -20 -31 -30 -27 -23 3 6 2 12 -3 12 -11 0 -30 -20 -32 -35 -1
-5 -4 -12 -7 -15 -4 -3 -3 1 1 8 4 6 2 12 -4 12 -6 0 -15 -10 -20 -22 -5 -13
-9 -17 -9 -10 -1 10 -5 10 -20 0 -16 -10 -18 -15 -8 -28 6 -8 7 -12 2 -7 -4 4
-17 -1 -28 -10 -11 -10 -17 -12 -13 -5 9 15 0 16 -17 2 -7 -6 -24 -20 -40 -31
-15 -11 -25 -24 -22 -28 2 -5 -7 -14 -20 -21 -13 -7 -22 -17 -18 -23 3 -5 0
-8 -8 -5 -14 5 -56 -40 -52 -54 2 -4 -6 -5 -17 -3 -12 2 -18 0 -15 -6 4 -5 1
-9 -5 -9 -7 0 -10 -7 -7 -14 4 -10 1 -13 -7 -10 -8 3 -17 0 -22 -7 -4 -8 -3
-10 4 -5 7 4 12 2 12 -4 0 -7 -7 -9 -16 -6 -9 3 -18 6 -21 6 -3 0 1 8 8 18 13
15 12 16 -3 3 -10 -7 -16 -17 -13 -21 5 -9 -32 -50 -46 -50 -6 0 -8 4 -4 9 3
5 1 12 -4 16 -6 3 -8 -4 -6 -17 3 -15 -5 -30 -27 -50 -17 -15 -35 -28 -39 -28
-4 0 -9 -9 -12 -21 -3 -13 -10 -18 -17 -14 -12 7 -50 -26 -50 -44 0 -11 -30
-25 -49 -22 -7 1 -10 -2 -6 -9 4 -7 -2 -14 -14 -17 -19 -5 -27 -22 -21 -48 1
-5 -1 -7 -5 -3 -4 3 -15 -1 -25 -10 -34 -31 -49 -42 -58 -42 -10 0 -98 -77
-157 -137 -23 -24 -47 -43 -53 -43 -6 0 -13 -9 -17 -20 -3 -11 -10 -19 -15
-17 -4 1 -18 -9 -30 -23 -12 -14 -27 -25 -33 -25 -7 0 -12 -5 -12 -12 0 -11
-35 -46 -71 -71 -11 -7 -12 -10 -4 -7 8 3 5 -2 -8 -11 -12 -9 -41 -37 -65 -62
-81 -86 -99 -102 -110 -95 -5 3 -7 2 -4 -4 6 -10 -26 -43 -43 -43 -5 0 -12 -5
-16 -12 -5 -7 -3 -8 7 -3 12 8 12 6 0 -8 -8 -10 -16 -15 -19 -12 -3 3 -20 -18
-39 -45 -18 -28 -40 -50 -48 -50 -7 0 -21 -13 -31 -28 -9 -16 -43 -50 -75 -77
-32 -27 -59 -55 -59 -62 0 -8 -16 -23 -35 -34 -33 -20 -51 -38 -22 -24 6 4 -5
-9 -25 -29 -21 -20 -38 -40 -38 -46 0 -5 -5 -12 -12 -16 -7 -5 -9 -2 -4 7 11
21 -32 -32 -55 -66 -10 -16 -19 -26 -19 -22 0 4 -15 -9 -32 -30 -18 -21 -45
-51 -59 -68 -15 -16 -61 -70 -103 -120 -42 -49 -95 -110 -119 -135 -23 -24
-35 -40 -27 -36 8 4 -1 -8 -22 -27 -20 -20 -34 -38 -31 -41 4 -3 -7 -18 -22
-33 -15 -16 -64 -73 -108 -128 -43 -55 -87 -110 -97 -122 -10 -12 -16 -24 -13
-27 4 -3 -1 -6 -11 -6 -9 0 -14 -4 -11 -10 5 -8 -18 -40 -66 -89 -8 -9 -23
-29 -34 -46 -19 -30 -28 -42 -55 -74 -8 -10 -16 -24 -18 -32 -2 -7 -18 -27
-35 -43 -18 -16 -26 -25 -19 -21 11 6 12 3 3 -14 -7 -11 -14 -21 -17 -21 -3 0
-2 5 1 10 3 6 4 10 0 10 -3 0 -10 -10 -15 -22 -12 -28 -27 -53 -61 -98 -14
-19 -29 -43 -32 -52 -4 -10 -14 -18 -22 -18 -9 0 -13 -5 -10 -10 4 -6 1 -17
-5 -25 -6 -8 -9 -18 -6 -23 3 -5 -1 -9 -9 -9 -8 0 -11 5 -8 10 3 6 1 7 -5 3
-7 -4 -12 -16 -12 -27 0 -10 -4 -19 -9 -19 -10 0 -27 -39 -23 -54 2 -5 -4 -6
-12 -3 -9 4 -13 1 -10 -6 4 -11 -11 -34 -59 -90 -9 -11 -17 -26 -17 -33 0 -7
-5 -16 -12 -20 -7 -4 -8 -3 -4 4 4 7 4 12 1 12 -3 0 -11 -13 -16 -30 -6 -16
-15 -30 -19 -30 -4 0 -6 -10 -2 -22 5 -20 3 -21 -10 -10 -13 10 -15 8 -12 -14
1 -14 0 -23 -3 -21 -2 3 -13 -3 -24 -14 -20 -20 -26 -34 -9 -24 6 4 6 -3 -1
-18 -6 -13 -23 -31 -37 -40 -24 -14 -24 -17 -7 -17 16 0 17 -2 5 -10 -9 -6
-20 -5 -29 3 -12 10 -13 9 -7 -2 5 -8 3 -17 -5 -23 -11 -8 -10 -9 4 -4 15 5
16 3 7 -14 -6 -11 -16 -20 -23 -20 -8 0 -7 4 3 11 13 9 13 10 0 7 -16 -5 -83
-108 -75 -116 2 -2 -7 -20 -20 -40 -13 -19 -22 -39 -19 -44 3 -4 1 -8 -5 -8
-11 0 -137 -255 -237 -477 -173 -386 -337 -848 -448 -1261 -20 -73 -36 -134
-36 -136 0 -3 -71 -56 -157 -119 -339 -246 -566 -439 -834 -706 -355 -355
-588 -667 -769 -1026 -152 -300 -259 -682 -305 -1085 -21 -181 -16 -630 9
-810 58 -413 198 -932 322 -1199 24 -52 44 -95 44 -96 0 -1 -46 9 -102 23
l-103 25 -128 -17 c-261 -34 -338 -65 -417 -170 -40 -53 -69 -146 -86 -274 -5
-42 -16 -65 -48 -104 -149 -184 -168 -217 -196 -341 l-22 -98 23 -101 c19 -85
30 -111 72 -170 41 -59 53 -86 77 -186 25 -100 116 -357 151 -425 6 -12 35
-54 64 -92 97 -130 222 -194 442 -224 57 -8 71 -14 88 -37 62 -86 179 -186
270 -231 65 -33 253 -73 372 -80 97 -5 122 -3 227 21 100 24 127 35 190 77
106 70 166 128 240 228 85 117 138 203 202 334 29 59 55 103 59 98 14 -24 316
-215 432 -274 225 -114 383 -173 648 -238 307 -76 547 -109 796 -109 l147 0
28 -38 c15 -20 92 -113 169 -207 602 -725 1327 -1398 2145 -1993 2280 -1660
5219 -2680 8350 -2897 484 -33 683 -39 1285 -39 604 0 796 6 1285 39 3348 233
6468 1381 8800 3240 667 532 1284 1138 1774 1745 60 74 115 141 121 148 8 9
59 17 156 23 246 15 428 46 739 124 410 102 780 267 1101 491 l77 53 7 -57 c9
-72 52 -257 67 -286 6 -11 34 -52 63 -91 96 -129 215 -190 450 -232 166 -29
483 -4 672 52 69 21 168 97 215 165 42 61 78 185 78 271 l0 49 56 0 c62 0 231
32 310 59 93 31 200 125 246 216 8 17 25 72 38 123 26 109 25 151 -15 326
l-27 119 40 41 c72 76 100 126 122 218 l21 87 -21 83 c-25 97 -72 170 -137
213 -25 17 -67 63 -97 106 -64 90 -128 149 -249 230 -117 78 -270 154 -409
202 -14 5 -12 19 24 119 73 207 151 537 185 778 24 173 24 557 -1 729 -68 488
-225 961 -445 1346 -324 565 -800 1108 -1380 1576 l-137 110 -33 137 c-317
1299 -974 2565 -1919 3702 -385 463 -912 993 -1397 1404 -1055 893 -2313 1653
-3688 2225 -2220 924 -4713 1368 -7257 1290z m1435 -519 c1552 -85 2819 -297
4090 -685 1811 -553 3500 -1417 4792 -2451 362 -290 649 -548 993 -893 487
-488 878 -954 1204 -1434 364 -537 682 -1131 914 -1707 71 -178 192 -506 210
-571 l10 -37 -94 60 c-88 56 -94 62 -110 111 -79 242 -267 683 -431 1012 -471
941 -998 1661 -1813 2475 -857 858 -1750 1517 -2878 2124 -1271 684 -2800
1243 -4144 1515 -905 184 -1745 288 -2773 343 -299 16 -1377 16 -1680 0 -1303
-70 -2490 -243 -3490 -511 -1078 -289 -2067 -662 -3024 -1140 -1324 -663
-2323 -1372 -3281 -2331 -377 -376 -645 -679 -942 -1065 -474 -616 -932 -1444
-1227 -2218 l-57 -148 -89 -53 c-50 -30 -91 -53 -92 -52 -4 4 101 290 173 470
232 581 558 1190 920 1723 539 793 1317 1619 2175 2309 1065 855 2396 1596
3843 2138 1712 642 3381 959 5426 1030 187 7 1188 -3 1375 -14z m-1175 -1764
c0 -7 -7 -20 -17 -27 -15 -13 -16 -52 -10 -449 7 -484 3 -527 -55 -649 -41
-87 -150 -196 -239 -240 -135 -66 -365 -89 -707 -69 -146 9 -187 26 -287 123
-123 119 -157 224 -190 585 -51 564 -58 650 -53 655 3 3 92 12 199 20 107 8
213 16 237 19 46 4 53 -6 25 -36 -16 -18 -16 -40 6 -381 29 -474 36 -535 58
-566 11 -13 21 -22 24 -20 4 2 19 -11 34 -29 15 -18 51 -45 79 -60 46 -24 61
-27 156 -27 85 0 114 4 150 21 60 27 104 73 126 130 17 44 17 69 6 413 -7 201
-16 416 -19 478 l-6 112 114 4 c314 8 369 7 369 -7z m1125 4 c341 -13 565 -26
572 -34 4 -3 -4 -17 -16 -30 -19 -20 -24 -40 -30 -130 -4 -58 -10 -109 -13
-112 -4 -3 -113 0 -243 7 -209 10 -238 10 -252 -3 -12 -13 -18 -103 -35 -544
-11 -291 -24 -534 -29 -540 -6 -8 -59 -10 -173 -6 -141 4 -167 2 -187 -12 -50
-35 -51 -31 -45 167 3 100 8 356 11 568 l6 386 -32 7 c-17 3 -118 6 -224 6
-181 0 -194 -1 -219 -21 -15 -12 -30 -19 -33 -15 -4 3 -8 76 -11 161 l-5 155
344 0 c189 0 466 -5 614 -10z m1153 -72 c80 -6 142 -16 142 -22 0 -5 -9 -19
-19 -30 -16 -18 -22 -58 -40 -241 -84 -863 -101 -1046 -101 -1062 -1 -45 -7
-46 -184 -32 -156 12 -169 11 -197 -5 -17 -10 -33 -16 -35 -13 -3 3 18 312 45
688 28 376 51 697 51 713 l0 29 98 -6 c53 -4 161 -12 240 -19z m732 -78 c289
-36 589 -81 668 -101 122 -31 229 -87 308 -162 64 -61 126 -147 106 -147 -5 0
0 -33 11 -72 17 -60 21 -103 21 -238 0 -147 -3 -176 -27 -262 -40 -150 -78
-221 -166 -309 -84 -84 -185 -141 -280 -159 -104 -19 -276 -11 -536 24 -448
62 -430 60 -464 40 -17 -10 -33 -16 -36 -13 -4 5 128 1228 150 1387 6 42 6 42
43 37 20 -3 111 -14 202 -25z m-5042 -5 c82 -20 135 -47 186 -98 l42 -42 2
-107 c2 -92 -1 -114 -19 -152 -23 -51 -91 -118 -144 -143 -19 -9 -35 -20 -35
-25 0 -4 0 -11 0 -15 0 -4 14 -9 32 -10 151 -15 296 -114 296 -203 0 -19 5
-65 11 -103 21 -128 -17 -246 -110 -339 -27 -26 -68 -57 -92 -67 -84 -36 -253
-72 -502 -107 -501 -70 -567 -82 -597 -111 -21 -20 -29 -23 -33 -12 -7 20
-236 1401 -233 1405 2 1 107 18 233 38 199 30 316 47 665 95 102 14 229 12
298 -4z m-1488 -190 c0 -4 -6 -18 -14 -34 -14 -25 -6 -78 100 -657 62 -346
114 -639 114 -652 0 -28 -16 -34 -149 -57 -86 -15 -110 -24 -137 -48 l-33 -28
-6 23 c-3 13 -53 259 -110 547 -58 289 -107 527 -110 530 -16 15 -28 -31 -40
-155 -12 -124 -53 -623 -71 -872 -5 -71 -11 -95 -23 -101 -9 -5 -60 -19 -114
-31 -78 -17 -101 -27 -113 -46 -9 -13 -20 -21 -25 -19 -4 3 -49 79 -100 168
-202 359 -463 796 -471 791 -5 -3 -6 6 -2 20 5 20 2 26 -9 26 -9 0 -19 -5 -22
-10 -3 -6 51 -240 121 -521 84 -337 124 -513 117 -520 -5 -5 -63 -24 -129 -41
-97 -25 -125 -36 -148 -61 l-30 -30 -8 24 c-17 55 -367 1363 -365 1365 5 5
595 154 609 154 7 0 22 -17 34 -38 91 -165 408 -710 420 -722 12 -12 14 -11
14 15 0 29 12 197 45 625 9 113 20 214 24 225 7 17 48 28 292 77 271 54 339
65 339 53z m8745 -160 c207 -42 384 -126 495 -235 69 -68 126 -152 115 -169
-3 -6 3 -45 14 -88 27 -111 33 -186 21 -280 -26 -201 -102 -380 -212 -498 -81
-86 -151 -132 -263 -171 -73 -26 -92 -28 -220 -28 -112 1 -164 6 -264 27 -68
15 -127 24 -132 21 -14 -8 -130 45 -201 93 -128 84 -227 230 -264 388 -22 97
-14 317 16 430 93 351 352 544 710 531 58 -3 141 -12 185 -21z m-7031 -140
c-4 -8 -11 -15 -16 -15 -6 0 -5 6 2 15 7 8 14 15 16 15 2 0 1 -7 -2 -15z
m-7580 -107 c-3 -4 -13 -7 -22 -7 -16 1 -16 2 0 6 11 3 15 11 12 21 -5 14 -4
14 4 2 6 -8 8 -18 6 -22z m5523 -30 c-3 -8 -6 -5 -6 6 -1 11 2 17 5 13 3 -3 4
-12 1 -19z m-1747 -54 c0 -8 -5 -24 -11 -36 -8 -16 -5 -42 17 -119 24 -86 26
-101 13 -113 -8 -7 -66 -28 -129 -46 -234 -67 -585 -180 -597 -193 -10 -10 -8
-29 15 -97 25 -80 29 -85 56 -87 17 -1 120 26 230 61 298 94 495 150 502 143
4 -4 1 -19 -5 -35 -10 -25 -8 -43 13 -118 14 -48 26 -96 26 -105 0 -20 4 -19
-200 -80 -410 -124 -480 -148 -485 -172 -3 -12 14 -78 38 -147 40 -119 43
-125 71 -127 15 -1 99 20 185 48 256 82 594 180 599 174 3 -3 1 -20 -6 -38
-10 -27 -7 -45 13 -116 31 -104 31 -119 3 -131 -13 -5 -142 -46 -288 -89 -146
-44 -380 -118 -520 -165 -224 -75 -258 -89 -282 -117 -20 -24 -29 -29 -33 -18
-53 145 -465 1327 -465 1335 0 14 541 196 945 318 154 47 283 85 288 85 4 1 7
-6 7 -15z m12460 -112 c211 -54 379 -134 472 -225 61 -59 81 -92 83 -135 1
-21 7 -68 14 -107 13 -76 7 -143 -14 -152 -8 -2 -83 17 -167 43 -102 32 -168
47 -199 46 l-46 -1 -6 41 c-7 50 -29 82 -88 126 -24 17 -53 41 -64 51 -74 69
-220 42 -244 -45 -11 -40 2 -88 22 -81 6 2 21 -4 32 -14 11 -9 83 -52 160 -95
236 -130 356 -217 421 -306 41 -55 47 -88 48 -243 1 -71 -3 -88 -32 -147 -55
-112 -155 -189 -292 -224 -88 -23 -265 -14 -415 21 -60 14 -121 25 -135 25
-35 0 -184 68 -256 117 -148 101 -218 240 -217 436 0 53 3 100 6 103 6 6 447
-93 456 -102 3 -2 -6 -15 -19 -28 -19 -21 -21 -31 -15 -63 7 -39 32 -76 45
-68 4 3 20 -11 34 -30 16 -21 55 -48 100 -71 157 -77 316 -47 316 60 0 68 -67
131 -240 226 -237 130 -371 242 -426 355 -25 53 -29 71 -29 150 0 79 4 97 28
147 52 107 155 185 280 214 94 21 247 12 387 -24z m-8538 -439 c-6 -2 -9 -10
-6 -15 4 -7 2 -8 -5 -4 -13 9 -5 26 12 25 9 0 8 -2 -1 -6z m5678 -87 c0 -3 -4
-8 -10 -11 -5 -3 -10 -1 -10 4 0 6 5 11 10 11 6 0 10 -2 10 -4z m1705 -356
c-3 -5 -12 -10 -18 -10 -7 0 -6 4 3 10 19 12 23 12 15 0z m-4065 -1240 c791
-36 1515 -96 2196 -180 3595 -445 7051 -1564 9296 -3011 999 -643 1712 -1342
2123 -2078 89 -159 197 -400 174 -385 -13 8 -11 -10 4 -25 10 -11 10 -13 0 -7
-23 13 -18 -47 27 -339 12 -77 23 -160 25 -185 7 -72 13 -197 8 -170 -60 341
-153 609 -326 944 -193 372 -433 691 -792 1052 -344 346 -684 625 -1130 926
-663 449 -1500 896 -2416 1288 -3094 1328 -6993 2076 -10549 2026 -2412 -35
-4452 -258 -6445 -706 -1720 -387 -3518 -1009 -5040 -1743 -2026 -978 -3252
-2012 -3598 -3037 -150 -441 -178 -971 -82 -1536 57 -334 193 -743 311 -935
99 -160 130 -252 120 -354 -17 -161 -145 -277 -371 -334 -151 -38 -227 -35
-364 13 -53 19 -171 21 -193 4 -8 -7 -25 -58 -38 -113 -24 -112 -47 -153 -153
-274 l-65 -74 39 -52 c50 -66 64 -103 79 -200 14 -90 123 -398 151 -426 11
-11 40 -20 76 -23 92 -9 225 -37 258 -53 63 -33 115 -78 160 -139 82 -112 145
-154 228 -154 35 0 34 -5 -6 -49 -17 -20 -42 -49 -53 -65 -21 -29 -21 -29 -69
-16 -59 16 -132 70 -182 134 -113 145 -154 169 -304 181 -127 10 -180 28 -222
74 -46 51 -54 67 -121 248 -34 93 -61 187 -71 244 -15 96 -18 101 -98 202 -62
78 -45 138 78 277 42 47 83 98 91 113 15 29 64 243 64 284 0 12 3 24 8 27 19
11 252 37 290 31 23 -3 73 -17 112 -31 47 -16 91 -24 136 -24 171 0 361 97
380 194 10 54 -13 128 -68 219 -179 295 -311 704 -385 1187 -31 204 -43 622
-24 826 33 352 116 655 261 949 262 537 720 1039 1435 1578 803 604 1930 1212
3260 1759 2971 1223 6138 1848 9875 1948 386 10 1603 4 1900 -10z m-596 -1176
c20 -8 21 -44 1 -70 -8 -10 -15 -29 -15 -41 0 -25 59 -317 204 -1015 229
-1099 456 -2346 596 -3281 45 -303 47 -329 23 -353 -15 -15 -32 -16 -138 -10
-485 28 -694 37 -1007 43 l-357 6 -30 -31 c-34 -38 -58 -41 -70 -9 -13 34 -38
205 -71 482 -37 311 -40 328 -54 337 -6 4 -11 20 -11 35 l0 28 -370 -2 c-432
-3 -806 -18 -836 -33 -11 -7 -27 -26 -34 -43 -17 -41 -40 -222 -65 -503 -20
-227 -26 -260 -53 -283 -11 -8 -106 -19 -289 -32 -326 -22 -443 -32 -773 -65
-440 -43 -431 -41 -495 -99 -14 -12 -35 -25 -47 -28 -19 -4 -23 -1 -23 16 0
36 77 637 125 987 124 889 303 1968 501 3025 83 443 164 858 167 862 4 4 410
32 687 48 249 14 710 32 1005 39 207 5 1412 -3 1429 -10z m-13579 -14 c3 -5 1
-10 -4 -10 -6 0 -11 5 -11 10 0 6 2 10 4 10 3 0 8 -4 11 -10z m-33 -67 c-6 -2
-10 -9 -6 -14 3 -5 0 -9 -5 -9 -6 0 -11 7 -11 15 0 8 8 15 18 14 10 0 12 -3 4
-6z m-37 -83 c3 -6 -1 -7 -9 -4 -18 7 -21 14 -7 14 6 0 13 -4 16 -10z m16915
-130 c789 -120 1469 -250 2210 -422 398 -92 509 -131 688 -240 201 -122 406
-328 545 -549 20 -31 33 -59 30 -63 -17 -17 -10 -58 32 -189 80 -248 90 -359
51 -547 -51 -238 -118 -501 -135 -522 -25 -30 -50 -27 -266 36 -312 90 -582
163 -915 246 -477 118 -466 116 -503 101 -50 -21 -82 -24 -94 -9 -8 9 -1 65
24 203 44 238 47 369 13 458 -25 66 -64 116 -116 148 -21 13 -33 27 -30 35 7
18 -29 51 -68 63 -42 14 -476 100 -786 156 -291 53 -380 57 -458 16 -105 -54
-177 -177 -212 -361 -5 -28 -51 -363 -100 -743 -50 -381 -97 -741 -105 -802
-33 -247 -37 -293 -32 -360 3 -38 11 -92 17 -118 14 -52 62 -112 84 -104 7 3
29 -10 47 -30 64 -66 73 -69 319 -113 129 -22 369 -68 533 -101 164 -32 318
-59 341 -59 49 0 121 41 153 86 77 109 111 217 168 542 45 248 51 273 70 278
67 17 1758 -426 1773 -464 3 -8 -13 -29 -37 -50 l-41 -37 -105 -436 c-57 -240
-115 -464 -129 -497 -98 -242 -309 -435 -631 -576 -236 -103 -471 -127 -780
-80 -55 9 -217 42 -360 74 -577 131 -1019 215 -1640 314 -192 31 -415 69 -495
86 -80 16 -159 27 -175 24 -21 -3 -53 7 -110 34 -271 131 -483 343 -630 629
-105 205 -135 326 -135 557 0 160 151 2228 175 2385 76 514 429 856 1038 1005
232 57 383 56 777 -4z m-9020 -174 c220 -14 507 -122 734 -276 79 -53 182
-158 254 -259 39 -55 47 -73 48 -115 1 -28 13 -91 27 -141 32 -114 17 20 158
-1405 117 -1181 121 -1229 110 -1332 -27 -273 -178 -541 -450 -800 -194 -185
-439 -308 -751 -377 -52 -11 -234 -50 -404 -86 -676 -144 -1345 -315 -2013
-516 -323 -97 -933 -297 -952 -312 -7 -7 -24 -29 -37 -49 -26 -40 -59 -50 -68
-20 -72 251 -1195 4534 -1191 4544 9 24 637 234 1233 414 873 262 1787 491
2682 670 256 51 439 75 510 68 14 -2 63 -5 110 -8z m9298 -1015 c-7 -9 -29
-36 -49 -61 -20 -25 -53 -75 -74 -112 -64 -112 -88 -91 -41 37 31 85 69 140
120 170 l41 24 8 -21 c4 -12 2 -27 -5 -37z m5508 -315 c688 -259 1319 -522
1979 -826 305 -140 635 -302 635 -312 0 -4 -14 -21 -32 -37 -36 -32 -25 40
-138 -866 -180 -1435 -376 -2733 -541 -3590 -29 -148 -53 -296 -53 -327 0 -32
-1 -58 -2 -58 -2 0 -97 50 -211 111 -251 135 -1006 512 -1190 594 -121 54
-133 62 -133 85 0 42 37 235 90 473 28 122 53 249 55 282 6 59 5 60 -27 79
-18 10 -141 65 -273 123 -132 58 -243 110 -246 115 -3 5 -9 9 -13 8 -4 -1 -26
6 -49 16 -23 10 -45 17 -49 16 -5 -1 -8 2 -8 8 0 14 -52 38 -69 32 -9 -3 -11
0 -6 8 6 10 4 12 -8 7 -9 -3 -18 0 -21 9 -3 9 -10 13 -15 10 -5 -4 -12 0 -15
6 -5 11 -7 11 -12 0 -4 -9 -10 -7 -22 8 -10 11 -26 21 -37 23 -31 6 -177 78
-208 104 -79 64 -117 11 -337 -475 -81 -178 -117 -232 -155 -232 -14 0 -98 30
-140 50 -18 9 -56 23 -285 110 -219 83 -384 142 -660 237 -264 90 -311 104
-350 99 -63 -8 -100 -7 -118 3 -28 16 603 1233 1146 2211 449 809 1155 2020
1177 2020 6 0 159 -56 341 -124z m-20271 -196 c3 -11 -1 -33 -9 -49 -9 -17
-16 -44 -16 -61 0 -17 41 -169 91 -338 50 -169 139 -473 199 -677 60 -203 172
-586 250 -850 216 -732 227 -768 266 -902 14 -49 120 -408 235 -799 115 -391
209 -722 209 -736 0 -38 -26 -55 -182 -118 -519 -208 -1211 -512 -1251 -548
-11 -9 -28 -34 -39 -55 -12 -25 -25 -37 -36 -35 -24 5 -1584 4375 -1570 4401
10 19 53 40 423 207 329 148 636 280 980 420 446 182 437 180 450 140z m18141
-313 c3 -8 -6 -61 -20 -118 -14 -57 -28 -115 -31 -129 -6 -30 -28 -121 -51
-210 -9 -36 -19 -94 -23 -130 -4 -48 -10 -65 -21 -65 -11 0 -15 11 -14 45 1
55 134 620 146 620 5 0 11 -6 14 -13z m-346 -1496 c0 -5 -4 -20 -9 -34 -5 -13
-12 -41 -15 -62 -4 -21 -11 -44 -16 -50 -5 -7 -8 -14 -5 -17 2 -2 -9 -58 -25
-124 -16 -65 -31 -131 -34 -146 -2 -15 -9 -42 -14 -60 -26 -84 -81 -334 -88
-398 -35 -299 -333 -603 -707 -722 -40 -13 -73 -26 -75 -30 -2 -4 -15 -2 -28
4 -24 11 -17 16 107 75 337 161 546 364 639 620 17 47 75 275 130 506 55 232
102 428 105 435 5 14 35 17 35 3z m-10922 -400 c-24 -192 -166 -430 -387 -652
-114 -114 -200 -178 -314 -235 -40 -19 -81 -40 -92 -46 -34 -19 -154 -46 -176
-41 -15 4 15 23 118 73 76 37 178 96 226 131 108 77 299 273 390 400 77 108
166 282 197 386 17 56 24 70 34 61 9 -9 10 -29 4 -77z m2184 -600 c1 -42 -17
-61 -38 -39 -14 14 -14 19 1 53 18 44 36 37 37 -14z m2088 -751 c816 -30 1565
-95 2310 -201 2223 -314 4271 -964 5895 -1871 282 -158 449 -257 910 -541 528
-325 740 -444 990 -552 344 -150 641 -218 1018 -232 86 -3 156 -7 155 -9 -10
-9 -333 -20 -661 -23 -65 -1 -116 -5 -113 -9 12 -20 -99 -2 -204 33 -338 111
-599 247 -1320 690 -674 414 -929 558 -1400 793 -816 407 -1674 736 -2653
1018 -144 41 -269 78 -277 81 -8 4 -17 7 -20 7 -3 1 -22 9 -43 19 -21 10 -45
16 -53 13 -8 -3 -13 0 -11 7 1 7 -11 13 -27 15 -18 2 -26 0 -22 -7 4 -7 1 -8
-8 -5 -9 3 -14 10 -11 14 7 11 -24 22 -37 13 -7 -4 -8 -1 -3 7 6 10 4 12 -8 7
-9 -3 -19 -2 -22 4 -4 5 -12 9 -18 8 -7 -1 -30 6 -51 15 -22 10 -54 18 -73 19
-18 1 -33 4 -33 7 0 3 -12 7 -27 8 -15 1 -30 7 -34 14 -4 6 -14 8 -22 5 -9 -3
-17 -2 -19 2 -4 11 -189 62 -200 55 -4 -3 -8 -1 -8 4 0 5 -17 12 -37 15 -21 3
-47 8 -58 11 -11 3 -55 15 -97 26 -43 11 -90 22 -105 24 -15 2 -48 9 -73 16
-25 8 -49 14 -55 16 -24 6 -359 76 -383 80 -15 2 -116 22 -224 43 -109 22
-215 42 -235 45 -21 3 -101 16 -178 30 -123 21 -278 46 -385 60 -19 3 -78 12
-130 20 -106 17 -384 53 -472 60 -32 3 -68 8 -80 11 -40 9 -343 37 -853 80
-375 31 -765 47 -1345 54 l-545 8 545 1 c300 1 664 -3 810 -8z m8459 -247 c9
-33 6 -46 -33 -132 -269 -585 -273 -594 -303 -570 -20 17 -16 44 16 102 16 28
64 129 106 222 88 193 194 415 200 415 2 0 9 -17 14 -37z m-7624 -363 c-3 -5
-52 -39 -108 -76 -112 -75 -267 -222 -331 -317 -22 -31 -43 -57 -48 -57 -20 0
-4 35 52 108 98 131 223 236 375 319 67 36 69 37 60 23z m1327 -124 c-30 -49
-49 -41 -24 11 9 19 23 33 33 33 16 0 15 -5 -9 -44z m-797 25 l40 -9 -50 -1
c-74 -2 -219 -34 -310 -70 -168 -65 -339 -196 -446 -344 -111 -152 -128 -163
-325 -207 -166 -36 -223 -57 -329 -118 -108 -64 -264 -218 -345 -342 -34 -52
-104 -180 -155 -285 -50 -104 -104 -202 -119 -217 -41 -40 -105 -66 -244 -97
-225 -52 -392 -137 -605 -308 -102 -83 -72 -37 48 73 175 160 337 256 543 320
65 20 129 42 143 49 49 26 87 76 114 153 43 119 127 289 193 388 192 287 449
451 782 501 l105 15 75 82 c185 200 265 268 395 334 144 72 362 109 490 83z
m1009 -36 c-15 -22 -31 -36 -21 -17 2 4 7 15 10 25 4 9 11 17 17 17 6 0 3 -11
-6 -25z m646 -159 c0 -3 -4 -8 -10 -11 -5 -3 -10 -1 -10 4 0 6 5 11 10 11 6 0
10 -2 10 -4z m-12810 -50 c0 -21 -22 -35 -70 -42 -25 -4 -70 -18 -100 -31 -30
-13 -102 -44 -160 -68 -58 -23 -130 -54 -160 -67 -30 -14 -71 -31 -90 -38 -19
-7 -61 -26 -92 -42 -32 -15 -60 -28 -63 -28 -10 0 -270 -114 -434 -191 -57
-27 -105 -49 -107 -49 -2 0 -67 -29 -144 -65 -77 -36 -145 -65 -151 -65 -13 0
-1 42 15 52 21 15 474 217 711 319 346 148 796 328 823 329 12 0 22 -6 22 -14z
m12051 -238 c-41 -161 -131 -317 -247 -429 -76 -73 -136 -111 -216 -138 -105
-36 -116 -34 -43 9 198 117 331 270 461 532 32 64 60 115 62 113 2 -2 -6 -41
-17 -87z m-2351 18 c0 -2 -46 -34 -102 -71 -126 -83 -303 -258 -400 -395 -95
-135 -238 -412 -238 -462 0 -10 -7 -18 -15 -18 -12 0 -10 13 11 73 131 366
387 688 679 849 48 26 65 33 65 24z m1154 -196 c165 -109 301 -223 481 -404
237 -238 408 -455 575 -730 66 -109 201 -358 188 -346 -4 3 -46 61 -94 130
-452 645 -884 1107 -1339 1431 -50 35 -102 72 -115 82 -61 44 214 -103 304
-163z m13257 -74 l32 -27 -17 -36 c-9 -19 -16 -37 -14 -38 2 -2 49 -15 105
-29 308 -78 596 -213 723 -337 44 -44 59 -66 69 -105 7 -27 20 -57 28 -66 15
-17 14 -18 -5 -18 -12 0 -39 -16 -61 -35 -21 -19 -43 -35 -49 -35 -13 0 -36
37 -51 82 -19 58 -99 120 -246 192 -153 76 -307 133 -471 176 -95 26 -126 38
-152 63 -61 58 -62 135 -4 237 43 75 44 76 63 37 10 -19 33 -47 50 -61z
m-9406 44 c-3 -5 -40 -34 -83 -64 -131 -92 -226 -202 -306 -354 -27 -51 -51
-91 -53 -88 -8 7 42 123 81 190 73 122 182 227 309 297 58 32 61 33 52 19z
m753 -105 c282 -96 838 -307 854 -323 4 -4 0 -32 -9 -63 l-16 -57 -21 41 c-56
104 -161 117 -382 46 -137 -44 -175 -40 -332 35 -180 86 -268 87 -396 6 -26
-17 -48 -30 -51 -30 -12 0 -44 118 -54 200 -7 52 -14 105 -16 117 -6 24 13 32
145 58 107 21 139 18 278 -30z m-478 -68 c0 -10 20 -78 45 -151 25 -74 45
-143 45 -153 0 -11 -9 -28 -21 -39 -39 -35 -98 -148 -133 -254 -50 -151 -69
-277 -70 -460 0 -230 26 -354 104 -478 l41 -64 -63 7 c-95 9 -171 25 -194 40
-38 25 -128 334 -165 570 -20 126 -18 421 4 537 39 206 155 366 329 455 64 33
77 32 78 -10z m-10076 -211 c19 -29 59 -82 88 -117 l54 -64 -170 -1 c-94 0
-207 -6 -251 -13 -99 -16 -227 -55 -281 -87 l-42 -23 -63 21 c-75 25 -246 138
-313 206 l-48 50 38 6 c91 14 380 46 509 56 211 16 222 16 337 18 l107 2 35
-54z m287 43 c758 -59 1262 -326 1628 -863 34 -50 61 -94 61 -98 0 -15 -338
-1 -405 17 -33 8 -95 31 -137 52 -74 35 -77 38 -84 77 -10 59 -36 113 -89 185
-137 186 -273 280 -475 330 -110 27 -188 38 -390 56 l-165 14 -55 58 c-30 32
-70 86 -88 121 l-33 62 48 0 c27 0 110 -5 184 -11z m8667 -89 c-7 -12 -44 -44
-83 -72 -38 -29 -84 -63 -101 -77 -17 -14 -51 -42 -75 -61 -76 -59 -341 -331
-409 -418 -165 -211 -261 -363 -374 -589 -36 -73 -66 -134 -66 -137 0 -2 -16
-39 -35 -80 -19 -42 -35 -79 -35 -82 0 -7 -60 -162 -85 -219 -7 -16 -23 -55
-35 -85 -12 -30 -31 -73 -40 -95 -10 -22 -34 -76 -53 -120 -140 -324 -391
-781 -592 -1076 -28 -41 -63 -99 -76 -127 -23 -49 -39 -66 -39 -39 0 26 51
118 142 257 287 438 499 856 738 1455 181 456 330 717 576 1010 155 185 368
380 573 523 41 29 76 52 78 52 2 0 -2 -9 -9 -20z m1612 -15 c156 -85 193 -99
261 -103 60 -4 76 0 162 37 123 52 174 65 244 59 51 -4 61 -9 89 -42 35 -41
50 -88 60 -190 9 -102 27 -161 91 -298 59 -127 74 -194 59 -270 -14 -73 -11
-75 -270 186 -248 249 -282 276 -348 276 -65 0 -174 -65 -314 -186 l-61 -53
-101 177 c-55 97 -126 215 -156 262 l-55 85 31 27 c43 38 124 67 188 67 44 1
68 -6 120 -34z m-11633 -55 c78 -85 192 -157 314 -201 l88 -32 -39 -45 c-83
-94 -120 -210 -120 -377 1 -231 68 -389 217 -510 l53 -43 -37 -33 c-20 -17
-62 -43 -92 -57 -51 -24 -59 -24 -160 -17 -191 15 -245 8 -363 -50 -38 -18
-68 -31 -68 -29 0 2 11 22 24 42 125 198 206 452 206 644 0 199 -93 400 -252
543 -83 75 -139 99 -228 100 -91 0 -126 -20 -162 -93 -20 -41 -23 -61 -23
-162 1 -101 6 -136 43 -286 43 -173 50 -249 32 -316 -19 -65 -31 -71 -139 -65
-96 4 -211 37 -211 58 0 5 8 26 19 47 26 53 38 110 56 259 8 71 24 175 35 229
12 54 26 160 32 235 l12 136 106 12 c59 7 203 27 321 46 118 18 227 34 243 34
23 1 41 -12 93 -69z m12607 19 c35 -15 62 -40 107 -97 76 -96 81 -100 220
-163 149 -67 287 -144 429 -240 117 -79 260 -193 260 -208 0 -5 -18 -21 -39
-35 -22 -15 -77 -71 -122 -123 -67 -78 -319 -303 -339 -303 -17 0 -104 193
-138 305 -40 133 -67 205 -76 205 -3 0 3 -20 14 -44 10 -24 33 -95 50 -157 17
-62 54 -162 81 -221 l51 -108 -74 -69 c-40 -37 -89 -82 -109 -99 l-36 -32 -68
148 c-69 148 -133 272 -141 272 -2 0 5 -18 16 -39 11 -22 52 -121 91 -221 81
-206 82 -191 -19 -230 -60 -23 -100 -25 -204 -9 l-73 11 -1 86 c-1 69 -7 102
-28 157 -15 39 -33 79 -41 91 -13 20 -11 22 33 42 62 28 119 76 152 128 22 35
30 41 40 31 12 -10 12 -9 2 4 -10 13 -9 25 4 60 9 24 18 82 21 129 6 103 -12
188 -62 297 -19 42 -35 78 -35 82 0 3 21 -15 48 -40 94 -89 104 -92 15 -4 -78
77 -93 98 -107 144 -9 30 -16 80 -16 112 0 72 19 159 35 159 7 0 33 -9 59 -21z
m-13518 -176 c0 -71 2 -198 4 -283 4 -130 2 -165 -14 -215 -37 -125 -70 -169
-271 -373 -196 -200 -249 -246 -348 -306 -57 -33 -60 -34 -97 -21 -80 28 -310
200 -310 232 0 5 46 15 103 22 259 30 405 70 536 144 211 120 303 309 225 464
-49 99 -144 161 -289 189 -74 15 -100 16 -183 6 -112 -13 -315 -68 -553 -149
l-167 -56 -66 31 c-79 37 -198 118 -245 166 l-34 35 89 41 c227 105 313 140
374 149 125 20 357 31 665 32 256 1 551 10 576 17 3 1 5 -55 5 -125z m8333 36
c-28 -102 -109 -268 -169 -349 -143 -193 -408 -372 -637 -429 -105 -27 -122
-26 -53 3 175 73 335 170 475 288 145 122 254 266 348 460 28 59 53 106 54
104 1 -1 -7 -36 -18 -77z m3860 -8 c53 -144 99 -219 228 -369 l63 -73 -21 -31
c-121 -169 -81 -428 111 -727 63 -98 60 -103 -45 -99 -59 3 -91 13 -200 60
-72 31 -143 60 -158 63 -37 10 -118 109 -162 200 -48 97 -59 181 -52 395 9
236 38 378 107 525 27 57 89 149 95 143 2 -2 17 -41 34 -87z m-13945 -233 c60
-55 151 -110 237 -145 38 -16 69 -30 69 -33 0 -3 -18 -13 -40 -22 -79 -33
-254 -144 -312 -197 -141 -129 -249 -359 -235 -498 12 -113 87 -183 219 -202
127 -18 198 11 354 146 54 48 119 99 144 115 38 24 154 68 180 68 5 0 58 -47
119 -104 63 -60 138 -120 176 -141 36 -20 65 -38 65 -40 0 -2 -44 -27 -97 -55
-120 -64 -181 -108 -314 -228 -108 -97 -182 -142 -234 -142 -31 0 -269 48
-350 71 -63 17 -190 84 -253 132 -140 109 -238 251 -294 427 -19 63 -23 96
-23 205 0 152 15 219 75 340 68 136 99 164 289 260 91 46 169 84 172 84 3 1
27 -18 53 -41z m14703 17 c20 -8 97 -74 172 -148 75 -72 182 -172 239 -220 57
-49 106 -95 108 -102 9 -22 -41 -79 -122 -141 l-74 -57 -57 60 c-125 130 -289
195 -372 149 -24 -13 -29 -10 -100 53 -41 36 -104 93 -140 127 l-64 61 39 35
c132 119 256 196 317 198 10 0 34 -7 54 -15z m-7358 -24 c-13 -11 -27 -20 -32
-21 -10 0 -115 -71 -212 -144 -104 -78 -288 -262 -398 -400 -48 -60 -87 -113
-87 -118 0 -4 46 -8 103 -8 291 0 585 -104 917 -325 160 -106 283 -210 441
-371 196 -201 388 -455 533 -707 55 -95 129 -241 104 -203 -7 10 -52 77 -99
150 -412 630 -994 1092 -1554 1233 -96 24 -129 27 -260 27 -130 0 -159 -3
-215 -22 -84 -30 -156 -79 -172 -117 -19 -45 -122 -198 -126 -187 -5 15 23 76
56 124 16 24 59 102 96 173 64 125 85 157 240 365 95 127 309 340 423 420 150
105 325 200 242 131z m922 -7 c180 -73 421 -218 599 -360 125 -100 351 -330
468 -476 104 -131 274 -381 354 -523 81 -142 236 -459 210 -430 -5 6 -42 64
-82 130 -277 452 -552 806 -856 1106 -223 218 -437 384 -678 525 -50 30 -88
54 -85 54 3 0 34 -12 70 -26z m4302 -6 c-71 -89 -255 -343 -332 -457 -185
-276 -259 -417 -434 -828 -216 -507 -393 -820 -641 -1139 -83 -108 -278 -320
-218 -239 58 79 190 282 256 393 166 281 281 524 457 967 240 602 380 839 647
1097 109 105 307 259 265 206z m11100 -266 c-3 -7 -23 73 -23 94 0 12 3 37 8
55 5 27 8 15 12 -56 3 -49 5 -92 3 -93z m-1402 28 c78 -56 225 -465 259 -723
6 -45 13 -90 16 -100 10 -31 64 -50 168 -56 l99 -6 -49 -47 c-101 -96 -110
-100 -156 -93 -73 13 -122 35 -160 72 -44 43 -62 94 -78 216 -19 150 -73 332
-160 540 l-33 78 -33 -32 -34 -33 -23 28 c-15 17 -42 32 -71 39 l-48 13 65 61
c37 34 76 64 89 66 44 10 119 -2 149 -23z m-7820 -225 l57 -60 -5 -55 c-4 -51
5 -107 38 -215 11 -37 10 -45 -16 -98 -26 -53 -92 -127 -114 -127 -13 0 -104
143 -150 236 -55 110 -85 221 -85 314 0 89 13 139 54 204 l31 49 67 -94 c37
-51 92 -121 123 -154z m-20599 199 c30 -5 59 -27 150 -117 328 -319 682 -528
1105 -651 195 -56 514 -101 762 -108 l66 -1 -55 -7 c-30 -3 -188 -7 -350 -8
-337 -3 -409 -7 -422 -20 -12 -12 -109 14 -263 70 -373 137 -722 367 -979 646
-32 34 -53 49 -60 43 -6 -5 -24 -8 -39 -6 -33 4 -80 -14 -118 -44 l-27 -21 25
78 c39 125 95 164 205 146z m22573 -176 c77 -86 144 -186 196 -293 69 -145 90
-232 96 -403 l6 -143 -44 -41 c-82 -78 -105 -83 -436 -92 l-162 -5 -31 47
c-17 26 -42 85 -56 132 -37 127 -52 165 -106 274 l-48 98 72 87 c115 137 187
203 317 291 66 45 123 86 127 91 10 17 22 9 69 -43z m-11141 -38 c88 -11 217
-20 287 -20 190 0 185 2 229 -94 94 -203 134 -386 134 -611 1 -215 -24 -335
-101 -493 -27 -55 -40 -72 -52 -68 -9 3 -56 17 -106 31 -111 32 -160 53 -180
75 -8 9 -26 49 -40 89 -32 94 -55 132 -133 213 l-63 66 34 45 c53 70 72 129
72 227 0 107 -29 174 -113 263 -80 84 -119 155 -146 270 -8 33 -23 32 178 7z
m5928 -77 c-6 -2 -9 -10 -6 -15 4 -7 2 -8 -5 -4 -13 9 -5 26 12 25 9 0 8 -2
-1 -6z m3552 -69 c35 -30 74 -71 85 -90 23 -38 42 -48 116 -59 28 -4 58 -11
68 -16 35 -19 13 -94 -46 -156 -38 -40 -82 -43 -147 -10 -35 17 -46 30 -57 62
-7 22 -24 63 -37 90 -52 108 -86 208 -74 222 16 20 21 17 92 -43z m-12967 -19
c40 -8 109 -16 154 -17 l82 -2 -46 -41 c-26 -22 -94 -70 -152 -105 -264 -162
-320 -206 -384 -301 -73 -109 -103 -271 -72 -387 17 -60 70 -133 115 -156 90
-45 184 -31 350 54 96 48 100 49 119 33 58 -53 100 -171 123 -346 8 -67 22
-137 30 -155 8 -19 51 -72 97 -119 l82 -85 -70 34 c-213 104 -308 162 -478
294 -245 191 -381 270 -548 318 -47 13 -223 47 -390 76 -167 28 -315 54 -328
58 l-24 8 28 18 c16 10 94 47 174 82 175 77 197 91 449 301 108 90 262 209
342 263 80 55 168 121 195 148 28 27 57 48 65 46 8 -2 48 -10 87 -19z m7218
-82 c-26 -107 -108 -260 -198 -371 -127 -157 -336 -276 -517 -295 -51 -6 -63
-13 94 58 237 106 434 299 581 568 39 72 51 84 40 40z m-5433 -288 c77 -25
259 -75 406 -111 372 -91 472 -125 513 -171 40 -46 76 -123 89 -193 11 -57 14
-160 4 -160 -3 0 -40 29 -82 66 -135 115 -394 223 -587 245 -59 6 -148 8 -216
5 l-117 -7 -23 38 c-53 86 -118 139 -191 157 -15 3 -79 15 -143 26 -116 20
-239 61 -308 103 l-38 23 77 12 c93 15 197 50 247 83 l36 25 97 -47 c53 -26
159 -68 236 -94z m12339 -135 c27 -74 67 -165 89 -204 22 -38 38 -71 36 -73
-3 -3 -67 -7 -143 -10 -131 -5 -245 6 -257 26 -3 4 2 27 10 52 25 71 15 145
-33 237 l-41 78 52 27 c28 15 80 49 116 77 l65 49 29 -62 c16 -34 51 -123 77
-197z m-1188 94 c25 -23 73 -55 105 -72 49 -26 63 -40 77 -75 30 -73 54 -158
75 -265 22 -112 25 -162 11 -162 -23 0 -172 111 -241 179 -42 42 -126 139
-188 216 l-111 140 48 50 c26 28 60 67 75 88 l27 37 38 -48 c21 -26 59 -66 84
-88z m-875 71 c59 -14 121 -117 168 -281 53 -183 87 -218 294 -306 164 -69
212 -114 259 -245 48 -131 72 -167 133 -197 63 -32 115 -33 218 -6 41 11 82
20 90 20 9 0 34 -28 57 -63 54 -82 202 -224 278 -266 95 -54 175 -103 175
-109 0 -12 -242 9 -315 28 -332 86 -519 165 -729 308 -126 85 -211 159 -341
294 -191 198 -335 408 -476 695 -38 78 -69 143 -69 145 0 5 223 -9 258 -17z
m-11069 -45 c87 -44 367 -130 472 -145 158 -22 199 -39 235 -101 39 -66 37
-68 -73 -61 -54 4 -154 18 -223 32 -279 56 -376 54 -510 -12 -63 -30 -95 -56
-206 -167 -225 -226 -237 -307 -74 -487 109 -121 229 -181 495 -249 254 -65
646 -120 854 -120 l76 0 100 -74 c55 -41 138 -95 184 -119 l84 -45 -89 -7
c-122 -11 -500 1 -664 20 -290 33 -587 96 -835 176 l-150 48 -54 62 c-30 33
-86 85 -125 114 -125 93 -136 113 -136 258 0 105 -20 171 -92 307 l-50 94 48
40 c27 21 117 107 199 191 130 131 160 157 226 189 78 39 193 74 242 75 15 1
45 -8 66 -19z m11351 -93 c82 -40 177 -44 252 -10 l47 22 114 -152 c161 -213
298 -345 419 -402 l36 -18 -3 -131 -3 -130 -68 -18 c-89 -23 -136 -22 -182 1
-51 26 -79 59 -157 181 -105 164 -131 187 -295 259 -106 46 -162 86 -187 134
-9 18 -29 73 -43 122 -15 50 -39 119 -54 154 -14 36 -26 66 -26 68 0 2 19 -8
43 -22 23 -15 71 -41 107 -58z m-7167 49 c113 -22 248 -70 384 -136 524 -256
1050 -820 1332 -1430 136 -293 169 -544 86 -635 l-26 -27 -48 99 c-50 102
-154 265 -235 368 -42 53 -45 60 -28 66 46 17 30 81 -35 140 -45 41 -96 57
-118 39 -12 -10 -37 10 -142 110 -109 104 -290 258 -398 337 -26 20 -27 22 -9
23 43 0 57 46 30 98 -30 57 -121 122 -170 122 -9 0 -23 -11 -31 -24 -15 -22
-15 -28 0 -62 8 -20 14 -38 13 -40 -2 -1 -32 16 -68 38 -83 51 -328 172 -449
222 -110 45 -364 111 -494 127 -51 7 -95 16 -99 22 -15 23 -30 175 -25 253 9
149 77 244 202 284 74 23 221 26 328 6z m8617 -61 c29 -57 35 -80 34 -130 0
-33 -8 -77 -16 -97 l-17 -37 -72 30 c-40 16 -102 46 -138 66 -89 49 -257 158
-265 172 -5 8 18 11 77 11 92 0 229 21 292 44 22 8 47 14 55 13 8 -1 31 -33
50 -72z m-440 -115 c92 -78 219 -162 306 -201 36 -16 64 -34 62 -38 -8 -22
-109 -95 -173 -126 -71 -34 -182 -61 -213 -51 -14 5 -17 19 -18 68 0 85 -26
181 -83 313 l-48 110 31 6 c34 6 31 7 136 -81z m-10460 -79 c41 -12 129 -30
195 -41 128 -22 188 -20 259 8 l40 16 55 -61 c32 -35 83 -110 120 -177 73
-135 99 -159 220 -212 47 -21 98 -46 114 -57 l27 -18 -32 -47 c-150 -221 -425
-406 -777 -522 -255 -85 -493 -128 -598 -109 -100 18 -209 74 -312 158 -42 35
-43 36 -20 42 13 4 62 8 109 8 265 4 545 60 725 145 174 82 253 176 226 265
-23 79 -46 94 -183 121 -31 6 -84 28 -120 49 l-63 39 -12 105 c-12 110 -42
238 -69 289 -15 28 -14 29 3 24 10 -3 52 -14 93 -25z m6073 -106 c-3 -9 -8
-14 -10 -11 -3 3 -2 9 2 15 9 16 15 13 8 -4z m5910 -47 c-63 -215 -192 -449
-328 -596 -163 -176 -423 -315 -653 -350 -63 -9 -64 -9 -121 28 -31 20 -86 64
-122 97 -35 32 -107 93 -159 135 -100 79 -135 114 -166 162 l-18 29 49 -7 c28
-4 113 -24 190 -44 130 -34 150 -36 285 -37 131 0 152 3 216 26 39 14 111 52
159 83 157 102 234 192 235 273 0 43 -36 136 -67 173 l-25 30 51 0 c27 0 90
-9 138 -21 122 -29 179 -28 246 5 30 14 62 35 72 46 30 33 35 23 18 -32z
m-5928 12 c-3 -5 -12 -10 -18 -10 -7 0 -6 4 3 10 19 12 23 12 15 0z m5382 -68
c66 -112 54 -183 -49 -284 -49 -48 -94 -80 -157 -112 -152 -76 -254 -82 -531
-31 -78 15 -179 30 -224 33 l-81 7 -3 40 c-2 22 1 71 8 108 l12 68 39 -6 c105
-18 277 57 395 171 45 44 45 44 87 33 61 -18 196 -13 317 10 145 27 149 27
187 -37z m-5431 11 c-10 -10 -19 5 -10 18 6 11 8 11 12 0 2 -7 1 -15 -2 -18z
m-13800 -190 c81 -93 277 -296 434 -453 777 -777 1552 -1368 2535 -1932 1129
-648 2390 -1166 3709 -1523 977 -264 2164 -447 3351 -515 512 -30 1442 -35
1900 -11 1311 70 2501 247 3534 527 1310 354 2570 872 3701 1519 981 561 1762
1156 2540 1935 157 157 352 360 433 451 l147 166 75 -15 c42 -8 74 -19 73 -23
-6 -16 -251 -291 -406 -456 -578 -612 -1266 -1195 -1959 -1660 -1358 -912
-2906 -1605 -4597 -2058 -1379 -369 -3045 -564 -4631 -541 -1164 16 -2199 122
-3285 337 -1496 296 -3062 866 -4404 1604 -1188 653 -2182 1411 -3038 2318
-155 165 -400 440 -406 456 -1 5 30 15 70 23 40 8 74 16 74 17 1 0 68 -74 150
-166z m13774 163 c0 -3 -4 -8 -10 -11 -5 -3 -10 -1 -10 4 0 6 5 11 10 11 6 0
10 -2 10 -4z m-4720 -193 c-68 -52 -132 -125 -200 -231 -90 -139 -101 -154
-106 -149 -14 13 96 200 174 296 35 44 150 126 161 116 3 -4 -10 -18 -29 -32z
m-5360 -57 c78 -14 212 -35 298 -46 86 -12 182 -28 212 -36 101 -28 250 -110
380 -209 321 -244 374 -283 454 -329 361 -205 866 -341 1581 -428 176 -21 746
-18 910 5 414 59 760 180 1051 368 50 33 93 59 96 59 3 0 8 -18 12 -39 3 -22
8 -46 11 -54 4 -10 -20 -29 -82 -63 -106 -59 -194 -144 -243 -234 -32 -59 -40
-67 -91 -87 -320 -127 -841 -193 -1294 -164 -461 30 -1055 146 -1470 286 -360
121 -569 236 -854 470 -333 272 -407 312 -706 381 -110 25 -252 62 -315 81
-112 34 -277 97 -293 112 -4 4 39 -5 97 -20 57 -15 168 -39 246 -53z m5816
-157 c449 -45 980 -311 1429 -716 381 -344 671 -767 691 -1007 5 -62 -5 -117
-22 -123 -5 -1 -20 16 -33 40 -45 79 -136 192 -261 323 -69 73 -136 146 -149
164 -13 17 -49 44 -80 59 -31 15 -106 63 -166 107 -122 87 -339 221 -455 279
-41 21 -77 42 -79 47 -10 29 -72 84 -116 104 -55 26 -86 30 -116 13 -16 -8
-52 0 -175 40 -172 57 -391 104 -563 122 -97 10 -324 8 -440 -4 -22 -2 -27 5
-43 58 -59 191 -16 349 114 425 118 68 261 89 464 69z m10080 -357 c0 -10 -6
-19 -13 -19 -8 0 -9 6 -2 19 5 10 11 18 12 18 2 0 3 -8 3 -18z m-26 -36 c0 -2
-7 -7 -16 -10 -8 -3 -12 -2 -9 4 6 10 25 14 25 6z m-54 -58 c4 -7 3 -8 -4 -4
-7 4 -12 2 -12 -5 0 -7 -3 -10 -6 -6 -6 5 3 27 11 27 2 0 7 -5 11 -12z
m-17015 -180 c268 -181 593 -284 1103 -348 428 -55 552 -86 751 -188 82 -42
175 -103 535 -348 230 -156 460 -259 808 -358 313 -90 584 -145 892 -183 205
-25 682 -25 865 1 372 51 658 145 928 304 86 51 123 55 70 7 -91 -82 -312
-208 -473 -271 -439 -171 -925 -226 -1490 -168 -380 39 -841 140 -1150 251
-247 89 -358 153 -834 483 -284 197 -435 256 -838 330 -588 106 -893 225
-1168 455 -79 66 -145 133 -104 105 12 -8 59 -40 105 -72z m6189 -26 c-36 -16
-161 -127 -199 -176 -22 -29 -57 -88 -76 -132 -56 -122 -70 -147 -73 -130 -4
20 83 220 118 271 16 22 43 54 62 72 40 39 146 103 167 102 14 0 14 -1 1 -7z
m4113 -152 c-10 -11 -19 -20 -21 -20 -1 0 2 9 8 20 6 11 15 20 20 20 6 0 2 -9
-7 -20z m-29 -39 c3 -4 -3 -16 -13 -26 -20 -17 -24 -4 -8 23 10 14 14 15 21 3z
m-3301 -60 c428 -74 854 -257 1254 -538 236 -165 481 -396 591 -556 84 -121
117 -200 117 -278 0 -56 -4 -71 -27 -100 -148 -195 -808 -211 -1451 -34 -284
78 -632 231 -842 371 -463 308 -705 685 -590 919 57 118 228 206 456 235 110
13 356 4 492 -19z m3214 -36 c-7 -13 -14 -20 -15 -14 -2 5 2 16 8 24 18 21 20
18 7 -10z m-44 -50 c-3 -9 -8 -14 -10 -11 -3 3 -2 9 2 15 9 16 15 13 8 -4z
m1037 -94 c0 -8 -92 -51 -107 -50 -3 1 -9 -4 -12 -9 -12 -19 -329 -184 -344
-179 -6 2 76 50 183 107 107 56 209 111 225 121 32 20 55 24 55 10z m-1160
-69 c0 -5 -20 -23 -44 -40 -73 -52 -150 -138 -200 -223 -47 -78 -61 -95 -50
-61 42 128 113 220 228 293 68 43 66 42 66 31z m1175 -139 c14 -61 77 -172
134 -240 43 -52 57 -74 48 -81 -7 -5 -113 -62 -237 -127 -124 -66 -240 -133
-257 -151 -40 -39 -42 -75 -12 -176 79 -259 -113 -507 -374 -485 -117 10 -226
76 -293 176 -34 52 -40 121 -19 201 27 97 29 133 11 168 -19 36 -34 46 -115
71 -102 32 -146 63 -178 128 -25 53 -28 68 -28 163 0 101 1 108 34 168 44 81
124 154 199 182 46 17 74 21 142 18 121 -4 195 -42 286 -143 75 -84 114 -103
167 -86 17 6 129 63 247 126 118 63 220 115 226 115 7 0 15 -12 19 -27z m-235
-1256 c0 -2 -9 -12 -20 -22 -24 -21 -27 -14 -4 9 15 15 24 20 24 13z"/>
<path d="M19421 19957 c-10 -13 -89 -544 -108 -733 l-6 -60 119 -17 c179 -26
278 -23 341 8 87 44 128 116 158 281 23 118 17 253 -13 310 -23 45 -74 94
-124 120 -18 9 -39 25 -47 35 -19 22 -138 55 -238 64 -56 6 -71 4 -82 -8z"/>
<path d="M13665 19968 c-79 -11 -146 -26 -154 -33 -12 -12 -12 -28 -2 -101 14
-98 17 -108 34 -97 7 4 23 6 37 5 37 -4 298 36 351 54 80 26 105 73 64 122
-14 16 -25 34 -25 39 0 18 -51 33 -108 32 -31 -1 -120 -10 -197 -21z"/>
<path d="M13905 19493 c-16 -2 -93 -13 -169 -23 -86 -12 -145 -25 -154 -34
-13 -12 -12 -29 2 -133 26 -188 19 -172 76 -167 116 10 339 45 383 60 117 39
153 151 71 223 -19 17 -34 35 -34 40 0 6 -8 14 -17 20 -22 11 -118 20 -158 14z"/>
<path d="M21253 19645 c-132 -36 -201 -118 -259 -312 -23 -75 -27 -107 -28
-218 -1 -107 2 -136 17 -162 10 -18 23 -33 31 -33 7 0 26 -17 43 -38 40 -49
131 -97 212 -112 136 -24 246 26 315 145 61 104 113 316 102 417 -11 109 -54
178 -150 240 -33 21 -60 42 -58 46 5 12 -91 41 -133 41 -22 0 -64 -7 -92 -14z"/>
<path d="M15683 14926 c-14 -17 -40 -125 -92 -388 -107 -534 -201 -1027 -201
-1054 0 -26 27 -33 48 -12 9 9 12 8 12 -4 0 -16 25 -16 298 -11 163 3 299 7
301 9 6 5 -204 973 -295 1364 l-18 75 -13 -40 -13 -40 5 40 c3 22 6 49 8 59 3
29 -18 30 -40 2z"/>
<path d="M10208 14535 c-324 -77 -680 -166 -918 -229 -170 -46 -209 -60 -227
-81 -13 -14 -23 -33 -23 -40 0 -35 510 -2499 519 -2508 7 -7 17 -5 30 7 18 16
20 16 28 1 9 -15 28 -12 199 34 276 73 598 152 854 211 124 28 242 58 263 67
94 40 138 139 144 323 4 121 0 151 -126 965 -72 462 -138 874 -147 915 -23
108 -74 210 -130 259 -26 23 -51 41 -55 41 -5 0 -9 11 -9 25 0 38 -51 65 -120
64 -30 0 -157 -25 -282 -54z"/>
<path d="M27007 12748 c-47 -42 -741 -1207 -735 -1235 3 -13 12 -17 31 -16 15
1 27 -2 27 -8 0 -5 4 -9 9 -9 6 0 132 -52 281 -116 150 -63 274 -114 275 -112
5 5 78 612 125 1038 22 201 41 377 43 393 5 38 -5 34 -32 -13 -40 -72 -35 -43
9 53 20 41 0 55 -33 25z m-96 -348 c-43 -122 -67 -169 -254 -481 -167 -280
-212 -349 -234 -357 -16 -5 -36 -13 -47 -17 -17 -7 -17 -6 -6 16 26 50 583
979 586 976 2 -1 -19 -63 -45 -137z"/>
<path d="M24029 8233 c26 -23 64 -61 85 -85 21 -24 34 -34 28 -23 -11 20 -86
94 -133 130 -14 11 -5 1 20 -22z"/>
<path d="M15573 7039 c-27 -27 -7 -83 44 -130 38 -36 66 -49 102 -49 45 0 51
36 17 94 -39 67 -133 116 -163 85z"/>
<path d="M16610 6196 c0 -47 89 -123 127 -109 7 3 13 18 13 34 0 42 -60 99
-105 99 -30 0 -35 -3 -35 -24z"/>
<path d="M14935 6167 c-25 -19 -13 -62 31 -104 39 -36 94 -57 139 -51 24 2 31
8 33 31 5 39 -29 81 -90 111 -58 29 -86 32 -113 13z"/>
<path d="M16133 5534 c-16 -41 53 -104 115 -104 40 0 50 21 28 56 -35 53 -129
85 -143 48z"/>
<path d="M14520 5287 c-37 -19 -36 -48 2 -86 84 -82 254 -68 192 16 -42 57
-146 94 -194 70z"/>
<path d="M15266 4924 c-22 -22 -20 -38 10 -74 54 -63 170 -98 219 -66 32 21
32 46 0 84 -53 63 -189 96 -229 56z"/>
<path d="M15796 4877 c-16 -11 -17 -17 -7 -36 7 -12 27 -31 44 -41 39 -24 112
-27 121 -5 8 22 -41 73 -82 85 -48 13 -55 13 -76 -3z"/>
<path d="M14593 4870 c-77 -18 -86 -75 -23 -144 132 -143 413 -134 335 11 -45
83 -215 156 -312 133z"/>
<path d="M16192 4538 c-60 -60 115 -172 199 -128 44 24 5 92 -73 124 -44 19
-109 21 -126 4z"/>
<path d="M15563 4435 c-85 -61 70 -200 220 -198 87 1 112 54 55 118 -65 75
-221 120 -275 80z"/>
<path d="M15111 4381 c-23 -15 -5 -57 33 -75 38 -18 92 -21 101 -6 13 21 -8
53 -48 71 -47 21 -65 23 -86 10z"/>
<path d="M16234 4145 c-11 -26 5 -45 52 -67 38 -16 51 -18 71 -9 32 15 27 39
-16 68 -39 26 -99 31 -107 8z"/>
<path d="M7039 19873 c-13 -16 -12 -17 4 -4 16 13 21 21 13 21 -2 0 -10 -8
-17 -17z"/>
<path d="M6504 19458 c-19 -23 -19 -23 2 -5 11 9 24 14 29 10 4 -5 5 -2 1 5
-9 16 -10 16 -32 -10z"/>
<path d="M6363 19335 c0 -8 4 -12 9 -9 5 3 6 10 3 15 -9 13 -12 11 -12 -6z"/>
<path d="M6277 19253 c-4 -3 -7 -13 -7 -22 1 -13 3 -13 11 2 11 19 8 33 -4 20z"/>
</g>
</svg>
